<svg id="Layer_1" data-name="Layer 1" xmlns="http://www.w3.org/2000/svg" viewBox="0 0 48 48" fill="#2563ab">
  <defs>
    <style>.cls-1{fill-rule:evenodd}</style>
  </defs>
  <path d="M37.8 46.5H10.2a1 1 0 0 1-1-1V9a1 1 0 0 1 1-1h7.4a1 1 0 0 1 0 2h-6.4v34.5h25.6V10h-6.4a1 1 0 1 1 0-2h7.4a1 1 0 0 1 1 1v36.5a1 1 0 0 1-1 1z"/>
  <path class="cls-1" d="M16 19.59a1.6 1.6 0 1 1-1.6 1.6 1.6 1.6 0 0 1 1.6-1.6z"/>
  <path d="M33.58 22.19h-13.7a1 1 0 0 1 0-2h13.7a1 1 0 0 1 0 2z"/>
  <path class="cls-1" d="M16 26.6a1.6 1.6 0 1 1-1.6 1.6 1.6 1.6 0 0 1 1.6-1.6z"/>
  <path d="M33.58 29.2h-13.7a1 1 0 0 1 0-2h13.7a1 1 0 0 1 0 2z"/>
  <path class="cls-1" d="M16 33.6a1.6 1.6 0 1 1-1.6 1.6 1.6 1.6 0 0 1 1.6-1.6z"/>
  <path d="M33.58 36.2h-13.7a1 1 0 1 1 0-2h13.7a1 1 0 0 1 0 2zM30.4 13.37H17.6a1 1 0 0 1-1-1v-6.5a1 1 0 0 1 1-1h3.06V4.2a2.7 2.7 0 0 1 2.7-2.7h1.28a2.69 2.69 0 0 1 2.69 2.7v.67h3.07a1 1 0 0 1 1 1v6.5a1 1 0 0 1-1 1zm-11.8-2h10.8v-4.5h-3.07a1 1 0 0 1-1-1V4.2a.7.7 0 0 0-.69-.7h-1.28a.71.71 0 0 0-.7.7v1.67a1 1 0 0 1-1 1H18.6z"/>
</svg>
